HIERARCHY
ROOT Hips
{
	OFFSET 0.000000 83.214638 0.000000
	CHANNELS 6 Xposition Yposition Zposition Xrotation Yrotation Zrotation
	JOINT Pelvis
	{
		OFFSET 0.000000 0.000000 0.000000
		CHANNELS 3 Xrotation Yrotation Zrotation
		JOINT LeftUpLeg
		{
			OFFSET 8.479700 -4.795502 -0.379100
			CHANNELS 3 Xrotation Yrotation Zrotation
			JOINT LeftLeg
			{
				OFFSET 0.024144 -32.555107 0.112900
				CHANNELS 3 Xrotation Yrotation Zrotation
				JOINT LeftFoot
				{
					OFFSET -0.024144 -32.638630 -3.012600
					CHANNELS 3 Xrotation Yrotation Zrotation
					JOINT LeftToeBase
					{
						OFFSET 0.970200 -13.225400 11.864200
						CHANNELS 3 Xrotation Yrotation Zrotation
						End Site
						{
							OFFSET 0.000000 12.319262 0.000000
						}
					}
					JOINT LFootTongue
					{
						OFFSET 1.142400 -1.059800 6.665200
						CHANNELS 3 Xrotation Yrotation Zrotation
						End Site
						{
							OFFSET 0.000000 12.319262 0.000000
						}
					}
				}
				JOINT LeftPantLeg
				{
					OFFSET 0.918482 -16.533964 -2.284700
					CHANNELS 3 Xrotation Yrotation Zrotation
					End Site
					{
						OFFSET 0.350399 24.744368 0.000000
					}
				}
			}
		}
		JOINT RightUpLeg
		{
			OFFSET -8.479700 -4.795502 -0.379100
			CHANNELS 3 Xrotation Yrotation Zrotation
			JOINT RightLeg
			{
				OFFSET -0.023144 -32.555092 0.112900
				CHANNELS 3 Xrotation Yrotation Zrotation
				JOINT RightFoot
				{
					OFFSET 0.023144 -32.638641 -3.012700
					CHANNELS 3 Xrotation Yrotation Zrotation
					JOINT RightToeBase
					{
						OFFSET -0.970200 -13.225400 11.864200
						CHANNELS 3 Xrotation Yrotation Zrotation
						End Site
						{
							OFFSET 0.000000 12.319244 0.000000
						}
					}
					JOINT RFootTongue
					{
						OFFSET -1.142200 -1.059800 6.665200
						CHANNELS 3 Xrotation Yrotation Zrotation
						End Site
						{
							OFFSET 0.000000 12.319243 0.000000
						}
					}
				}
				JOINT RightPantLeg
				{
					OFFSET -0.919482 -16.533978 -2.284800
					CHANNELS 3 Xrotation Yrotation Zrotation
					End Site
					{
						OFFSET -0.350400 24.744419 0.000000
					}
				}
			}
		}
	}
	JOINT Spine
	{
		OFFSET 0.000000 7.722000 1.166200
		CHANNELS 3 Xrotation Yrotation Zrotation
		JOINT Spine1
		{
			OFFSET 0.000000 12.024101 0.248800
			CHANNELS 3 Xrotation Yrotation Zrotation
			JOINT Spine2
			{
				OFFSET 0.000000 11.502998 -0.491200
				CHANNELS 3 Xrotation Yrotation Zrotation
				JOINT Neck
				{
					OFFSET 0.000000 18.430702 -3.123100
					CHANNELS 3 Xrotation Yrotation Zrotation
					JOINT Head
					{
						OFFSET 0.000000 9.051102 1.034000
						CHANNELS 3 Xrotation Yrotation Zrotation
						JOINT HairB
						{
							OFFSET 0.208400 24.786102 24.822300
							CHANNELS 3 Xrotation Yrotation Zrotation
							End Site
							{
								OFFSET 0.000000 32.263779 0.000000
							}
						}
						JOINT HairA
						{
							OFFSET -7.081100 24.428299 23.196600
							CHANNELS 3 Xrotation Yrotation Zrotation
							End Site
							{
								OFFSET 0.000000 32.263779 0.000000
							}
						}
						JOINT Hat
						{
							OFFSET 16.728800 15.048294 -15.439601
							CHANNELS 3 Xrotation Yrotation Zrotation
							End Site
							{
								OFFSET 0.000000 32.263779 0.000000
							}
						}
					}
				}
				JOINT LeftShoulder
				{
					OFFSET 6.197800 13.665199 -4.064700
					CHANNELS 3 Xrotation Yrotation Zrotation
					JOINT LeftArm
					{
						OFFSET 7.778100 -0.187103 -1.709300
						CHANNELS 3 Xrotation Yrotation Zrotation
						JOINT LeftForeArm
						{
							OFFSET 22.049376 0.000000 0.000000
							CHANNELS 3 Xrotation Yrotation Zrotation
							JOINT LeftHand
							{
								OFFSET 23.009392 0.000000 0.000000
								CHANNELS 3 Xrotation Yrotation Zrotation
								JOINT LeftHandThumb1
								{
									OFFSET 3.507191 -2.063065 3.133727
									CHANNELS 3 Xrotation Yrotation Zrotation
									JOINT LeftHandThumb2
									{
										OFFSET 3.101337 -1.790558 1.790558
										CHANNELS 3 Xrotation Yrotation Zrotation
										JOINT LeftHandThumb3
										{
											OFFSET 3.058640 -1.765907 1.765906
											CHANNELS 3 Xrotation Yrotation Zrotation
											End Site
											{
												OFFSET -0.415260 3.926476 -0.049563
											}
										}
									}
								}
								JOINT LeftHandIndex1
								{
									OFFSET 11.334419 -0.901459 3.706815
									CHANNELS 3 Xrotation Yrotation Zrotation
									JOINT LeftHandIndex2
									{
										OFFSET 3.283112 0.000000 0.000000
										CHANNELS 3 Xrotation Yrotation Zrotation
										JOINT LeftHandIndex3
										{
											OFFSET 3.323853 0.000000 0.000000
											CHANNELS 3 Xrotation Yrotation Zrotation
											End Site
											{
												OFFSET -1.135597 3.097809 0.402452
											}
										}
									}
								}
								JOINT LeftHandMiddle1
								{
									OFFSET 11.335861 0.000000 0.000000
									CHANNELS 3 Xrotation Yrotation Zrotation
									JOINT LeftHandMiddle2
									{
										OFFSET 3.410492 0.000000 0.000000
										CHANNELS 3 Xrotation Yrotation Zrotation
										JOINT LeftHandMiddle3
										{
											OFFSET 3.312172 0.000000 0.000000
											CHANNELS 3 Xrotation Yrotation Zrotation
											End Site
											{
												OFFSET -1.150200 3.080154 0.400270
											}
										}
									}
								}
								JOINT LeftHandRing1
								{
									OFFSET 11.514786 -0.013176 -3.003090
									CHANNELS 3 Xrotation Yrotation Zrotation
									JOINT LeftHandRing2
									{
										OFFSET 3.053307 0.000000 0.000000
										CHANNELS 3 Xrotation Yrotation Zrotation
										JOINT LeftHandRing3
										{
											OFFSET 3.295807 0.000000 0.000000
											CHANNELS 3 Xrotation Yrotation Zrotation
											End Site
											{
												OFFSET -1.281006 3.013344 0.375733
											}
										}
									}
								}
								JOINT LeftHandPinky1
								{
									OFFSET 10.518692 -0.960396 -5.730441
									CHANNELS 3 Xrotation Yrotation Zrotation
									JOINT LeftHandPinky2
									{
										OFFSET 2.861649 0.000000 0.000000
										CHANNELS 3 Xrotation Yrotation Zrotation
										JOINT LeftHandPinky3
										{
											OFFSET 2.863380 0.000000 0.000000
											CHANNELS 3 Xrotation Yrotation Zrotation
											End Site
											{
												OFFSET -0.843597 2.711159 0.369971
											}
										}
									}
								}
							}
							JOINT LSleeve
							{
								OFFSET 6.676277 -0.344902 -1.011730
								CHANNELS 3 Xrotation Yrotation Zrotation
								End Site
								{
									OFFSET 0.000000 14.885353 0.000000
								}
							}
						}
					}
				}
				JOINT RightShoulder
				{
					OFFSET -6.197800 13.665199 -4.064700
					CHANNELS 3 Xrotation Yrotation Zrotation
					JOINT RightArm
					{
						OFFSET -7.778100 -0.187103 -1.709300
						CHANNELS 3 Xrotation Yrotation Zrotation
						JOINT RightForeArm
						{
							OFFSET -22.049376 0.000000 0.000000
							CHANNELS 3 Xrotation Yrotation Zrotation
							JOINT RightHand
							{
								OFFSET -23.009392 0.000000 0.000000
								CHANNELS 3 Xrotation Yrotation Zrotation
								JOINT RightHandThumb1
								{
									OFFSET -3.507191 -2.063065 3.133727
									CHANNELS 3 Xrotation Yrotation Zrotation
									JOINT RightHandThumb2
									{
										OFFSET -3.101337 -1.790558 1.790558
										CHANNELS 3 Xrotation Yrotation Zrotation
										JOINT RightHandThumb3
										{
											OFFSET -3.058640 -1.765907 1.765906
											CHANNELS 3 Xrotation Yrotation Zrotation
											End Site
											{
												OFFSET 0.415260 3.926476 -0.049563
											}
										}
									}
								}
								JOINT RightHandIndex1
								{
									OFFSET -11.334419 -0.901459 3.706815
									CHANNELS 3 Xrotation Yrotation Zrotation
									JOINT RightHandIndex2
									{
										OFFSET -3.283112 0.000000 0.000000
										CHANNELS 3 Xrotation Yrotation Zrotation
										JOINT RightHandIndex3
										{
											OFFSET -3.323853 0.000000 0.000000
											CHANNELS 3 Xrotation Yrotation Zrotation
											End Site
											{
												OFFSET 1.135597 3.097809 0.402452
											}
										}
									}
								}
								JOINT RightHandMiddle1
								{
									OFFSET -11.335861 0.000000 0.000000
									CHANNELS 3 Xrotation Yrotation Zrotation
									JOINT RightHandMiddle2
									{
										OFFSET -3.410492 0.000000 0.000000
										CHANNELS 3 Xrotation Yrotation Zrotation
										JOINT RightHandMiddle3
										{
											OFFSET -3.312172 0.000000 0.000000
											CHANNELS 3 Xrotation Yrotation Zrotation
											End Site
											{
												OFFSET 1.150200 3.080154 0.400270
											}
										}
									}
								}
								JOINT RightHandRing1
								{
									OFFSET -11.514786 -0.013176 -3.003090
									CHANNELS 3 Xrotation Yrotation Zrotation
									JOINT RightHandRing2
									{
										OFFSET -3.053307 0.000000 0.000000
										CHANNELS 3 Xrotation Yrotation Zrotation
										JOINT RightHandRing3
										{
											OFFSET -3.295807 0.000000 0.000000
											CHANNELS 3 Xrotation Yrotation Zrotation
											End Site
											{
												OFFSET 1.281006 3.013344 0.375733
											}
										}
									}
								}
								JOINT RightHandPinky1
								{
									OFFSET -10.518692 -0.960396 -5.730441
									CHANNELS 3 Xrotation Yrotation Zrotation
									JOINT RightHandPinky2
									{
										OFFSET -2.861649 0.000000 0.000000
										CHANNELS 3 Xrotation Yrotation Zrotation
										JOINT RightHandPinky3
										{
											OFFSET -2.863380 0.000000 0.000000
											CHANNELS 3 Xrotation Yrotation Zrotation
											End Site
											{
												OFFSET 0.843597 2.711159 0.369971
											}
										}
									}
								}
							}
							JOINT RSleeve
							{
								OFFSET -6.676277 -0.344902 -1.011730
								CHANNELS 3 Xrotation Yrotation Zrotation
								End Site
								{
									OFFSET 0.000000 14.885353 0.000000
								}
							}
						}
					}
				}
				JOINT Backpack
				{
					OFFSET 0.000000 -2.471497 36.677502
					CHANNELS 3 Xrotation Yrotation Zrotation
					End Site
					{
						OFFSET 0.000000 20.427315 0.000000
					}
				}
				JOINT Hood
				{
					OFFSET 0.000000 18.754097 -10.431000
					CHANNELS 3 Xrotation Yrotation Zrotation
					JOINT Hood1
					{
						OFFSET 0.000000 -5.011002 -7.685901
						CHANNELS 3 Xrotation Yrotation Zrotation
						End Site
						{
							OFFSET 0.000000 9.175140 0.000000
						}
					}
				}
				JOINT LHoodieString
				{
					OFFSET 5.250500 16.397697 3.089900
					CHANNELS 3 Xrotation Yrotation Zrotation
					JOINT LHoodieString1
					{
						OFFSET 0.257700 -6.364304 3.694600
						CHANNELS 3 Xrotation Yrotation Zrotation
						JOINT LHoodieString2
						{
							OFFSET 0.000000 -9.643799 2.679100
							CHANNELS 3 Xrotation Yrotation Zrotation
							End Site
							{
								OFFSET 0.000000 10.009018 0.000000
							}
						}
					}
				}
				JOINT RHoodieString
				{
					OFFSET -5.250500 16.397697 3.089900
					CHANNELS 3 Xrotation Yrotation Zrotation
					JOINT RHoodieString1
					{
						OFFSET -0.257700 -6.364304 3.694600
						CHANNELS 3 Xrotation Yrotation Zrotation
						JOINT RHoodieString2
						{
							OFFSET 0.000000 -9.643799 2.679100
							CHANNELS 3 Xrotation Yrotation Zrotation
							End Site
							{
								OFFSET 0.000000 10.009018 0.000000
							}
						}
					}
				}
			}
			JOINT LBackpack_Strap
			{
				OFFSET 15.223200 -7.719803 -6.610900
				CHANNELS 3 Xrotation Yrotation Zrotation
				End Site
				{
					OFFSET 0.000000 16.040596 0.000000
				}
			}
			JOINT RBackpack_Strap
			{
				OFFSET -15.223000 -7.719803 -6.610900
				CHANNELS 3 Xrotation Yrotation Zrotation
				End Site
				{
					OFFSET 0.000000 16.040596 0.000000
				}
			}
		}
	}
	JOINT BoyFacialAnim_Joint
	{
		OFFSET 1.000000 -82.208099 -1.550900
		CHANNELS 3 Xrotation Yrotation Zrotation
		End Site
		{
			OFFSET 0.000000 30.012791 0.000000
		}
	}
}
MOTION
Frames: 4
Frame Time: 0.016667
0.055023 79.256866 -0.463535 -24.512489 -2.419628 -1.570321 -0.000002 0.000000 0.000000 2.916332 19.879325 9.720284 34.257562 5.310082 -9.721693 -17.187097 29.705767 8.106925 0.000000 -0.000001 -0.000000 0.000000 -0.000001 -0.000000 -0.000001 -0.000001 0.000001 16.944974 -14.835407 -3.180304 30.466414 -10.258861 0.312260 -19.555417 -28.371212 1.554243 0.000000 0.000002 0.000001 0.000000 0.000002 0.000001 -0.000001 0.000002 -0.000000 11.183444 -4.804639 -0.779839 3.545658 -2.400646 -0.151372 3.557022 -2.388382 -0.108336 1.551790 0.634302 -1.308391 -6.938529 0.762142 3.865455 0.000000 0.000001 -0.000000 0.000000 0.000001 -0.000000 0.000000 0.000001 -0.000000 0.445071 -15.488176 -11.025452 -20.285387 3.054798 -36.773540 0.000040 -67.201917 0.000047 -41.639996 -11.471767 -7.743319 -22.783296 -14.798039 12.273503 3.104731 10.435604 14.815836 -0.000001 0.000002 -0.000002 1.968613 -2.875783 26.071488 3.265046 5.250349 -63.730419 -0.000002 0.000001 -0.000005 -0.918329 3.905210 20.820671 2.974894 5.097485 -60.513823 -0.000001 0.000000 0.000002 -6.190576 13.399346 27.815703 3.764242 5.467484 -69.071934 -0.000001 -0.000000 -0.000000 -10.204719 21.361517 28.797809 0.278407 1.786141 -17.716437 -0.000001 0.000000 0.000002 -0.000002 0.000003 -0.000000 0.064830 14.691501 14.953770 -12.069990 -6.923741 61.446629 0.000003 39.415447 -0.000004 -1.891998 -4.118451 24.314808 -20.073120 16.089479 -24.921347 8.794353 -40.952745 -1.386070 -0.000000 0.000002 -0.000000 1.063116 -5.182559 38.505533 3.100507 -4.389851 70.453046 0.000003 0.000000 0.000004 2.946402 -6.593251 70.499860 0.642383 -2.362184 30.423155 0.000006 -0.000001 0.000001 5.948306 -7.199731 80.598582 0.322680 -1.704980 21.432107 -0.000001 0.000001 0.000001 1.932490 -22.479095 97.263308 1.111358 -3.021283 40.383985 -0.000001 0.000000 0.000004 0.000000 0.000001 -0.000001 -0.000001 0.000001 -0.000000 -0.000001 0.000001 -0.000000 -0.000001 0.000001 -0.000000 -0.000001 0.000001 -0.000000 -0.000001 0.000001 0.000000 -0.000001 0.000001 0.000000 -0.000001 0.000001 -0.000000 -0.000001 0.000001 0.000000 -0.000001 0.000001 0.000000 -0.000001 0.000000 -0.000000 -0.000001 0.000000 -0.000000 -0.000002 0.000000 0.000000 
-0.293494 79.231415 -0.276665 -24.534217 -3.368805 -2.050991 -0.000000 -0.000000 -0.000000 1.667308 20.182992 10.906400 36.233331 5.421560 -9.661806 -16.183853 29.782719 7.286761 -0.000000 -0.000001 0.000000 -0.000000 -0.000001 0.000000 -0.000001 0.000001 -0.000000 17.101144 -14.504433 -2.900531 30.462186 -10.085244 0.402885 -19.934904 -27.827557 1.208854 0.000000 -0.000000 -0.000000 0.000000 -0.000000 -0.000000 0.000001 -0.000001 -0.000000 11.186918 -4.816703 -0.738502 3.545658 -2.400647 -0.151372 3.557021 -2.388381 -0.108336 1.569039 0.632570 -1.281187 -6.886417 0.740095 3.939075 -0.000000 0.000000 -0.000000 -0.000000 0.000000 -0.000000 -0.000000 0.000000 -0.000000 0.453287 -15.502117 -10.972480 -20.293312 3.094328 -36.833629 -0.000041 -67.199328 -0.000044 -41.623675 -11.480602 -7.750275 -22.783291 -14.798044 12.273503 3.108323 10.435739 14.812915 -0.000003 -0.000002 0.000002 1.972005 -2.887016 26.060452 3.263325 5.249516 -63.711704 -0.000001 -0.000001 -0.000005 -0.911531 3.888555 20.812155 2.975748 5.097979 -60.523597 0.000000 0.000000 0.000000 -6.204481 13.442068 27.794058 3.753702 5.463465 -68.961176 -0.000001 0.000000 -0.000002 -10.220989 21.393307 28.797324 0.277959 1.784786 -17.702286 0.000001 0.000000 0.000002 0.000000 0.000000 -0.000000 0.059575 14.649711 15.003832 -12.024883 -6.807492 61.377637 0.000013 39.437031 -0.000019 -1.973400 -4.141925 24.291520 -20.073120 16.089482 -24.921345 8.794340 -40.952742 -1.386063 -0.000000 -0.000000 -0.000001 1.073330 -5.197523 38.626120 3.094987 -4.387891 70.380769 0.000000 -0.000001 0.000003 2.960354 -6.598242 70.519743 0.642393 -2.362209 30.423578 -0.000000 0.000000 -0.000000 5.942376 -7.197732 80.626702 0.322951 -1.705687 21.441511 0.000001 -0.000002 0.000002 1.935738 -22.481190 97.290219 1.111360 -3.021284 40.383989 -0.000003 0.000000 -0.000001 -0.000000 -0.000000 -0.000000 -0.000000 0.000000 0.000000 -0.000000 0.000000 0.000000 -0.000000 0.000000 0.000000 -0.000000 0.000000 0.000000 -0.000000 0.000000 0.000000 -0.000000 0.000000 0.000000 -0.000000 0.000000 0.000000 -0.000000 0.000000 0.000000 -0.000000 0.000000 0.000000 -0.000001 0.000000 0.000000 -0.000001 0.000000 0.000000 -0.000000 -0.000000 -0.000000 
-0.620823 79.200562 -0.114815 -24.563210 -4.320395 -2.543068 -0.000001 -0.000000 0.000000 0.207366 20.431211 12.175763 38.415627 5.498640 -9.598943 -14.987332 29.834495 6.749330 -0.000000 -0.000001 0.000000 -0.000000 -0.000001 -0.000000 -0.000000 -0.000002 0.000001 17.211418 -14.179545 -2.639975 30.500503 -9.973481 0.478709 -20.278121 -27.211112 0.921269 0.000000 -0.000001 0.000000 0.000000 -0.000001 0.000000 0.000001 0.000000 0.000001 11.191095 -4.830971 -0.688884 3.545658 -2.400646 -0.151372 3.557022 -2.388382 -0.108336 1.594335 0.627995 -1.252938 -6.802726 0.692376 4.007736 0.000000 -0.000000 0.000000 0.000000 -0.000000 0.000000 0.000000 -0.000000 0.000000 0.460829 -15.508023 -10.923490 -20.284315 3.109530 -36.878913 -0.000028 -67.192894 -0.000023 -41.627052 -11.498699 -7.746719 -22.783293 -14.798042 12.273501 3.113757 10.435899 14.808463 -0.000001 -0.000000 -0.000003 1.969736 -2.895179 26.045166 3.259427 5.247598 -63.669029 -0.000002 -0.000000 -0.000000 -0.905922 3.873772 20.810152 2.976657 5.098489 -60.533617 -0.000002 0.000001 0.000004 -6.207448 13.460014 27.775152 3.749414 5.461814 -68.916240 -0.000000 0.000001 -0.000000 -10.231253 21.412798 28.801422 0.278408 1.786178 -17.716703 0.000000 0.000000 -0.000000 0.000001 0.000001 0.000000 0.056285 14.633619 15.032357 -11.965737 -6.692805 61.317156 0.000001 39.454055 -0.000006 -2.087406 -4.155330 24.254584 -20.073123 16.089477 -24.921347 8.794346 -40.952749 -1.386068 -0.000000 -0.000000 0.000000 1.083624 -5.208394 38.767932 3.091869 -4.386782 70.339972 0.000001 -0.000000 0.000002 2.965368 -6.600104 70.543614 0.642267 -2.361965 30.420116 -0.000000 -0.000002 0.000001 5.939525 -7.195791 80.668680 0.323115 -1.706113 21.447076 0.000000 -0.000001 0.000000 1.933409 -22.482305 97.298237 1.111362 -3.021283 40.383989 -0.000002 0.000001 -0.000003 0.000000 -0.000002 0.000002 0.000000 0.000001 0.000000 0.000000 0.000001 0.000000 0.000000 0.000001 0.000000 0.000000 0.000001 0.000000 0.000000 0.000001 0.000000 0.000000 0.000001 0.000000 0.000000 0.000001 0.000000 0.000000 0.000001 0.000000 0.000000 0.000001 0.000000 0.000000 -0.000001 0.000000 0.000000 -0.000001 0.000000 -0.000001 -0.000000 0.000000 
-0.985675 79.164879 0.070194 -24.599580 -5.274538 -3.046112 0.000000 -0.000000 0.000000 -1.364697 20.584133 13.539861 40.673790 5.510478 -9.508352 -13.598443 29.872170 6.444976 -0.000000 -0.000001 0.000000 -0.000000 -0.000001 -0.000000 -0.000000 0.000002 -0.000000 17.371343 -13.874352 -2.335711 30.511486 -9.906825 0.532373 -20.633882 -26.540213 0.651781 -0.000000 -0.000003 0.000000 -0.000000 -0.000003 0.000000 -0.000001 0.000001 -0.000001 11.195944 -4.847258 -0.631672 3.545658 -2.400646 -0.151373 3.557023 -2.388379 -0.108336 1.621906 0.619884 -1.221550 -6.707824 0.616421 4.081620 0.000000 0.000000 -0.000000 0.000000 0.000000 -0.000000 0.000000 0.000000 -0.000000 0.467432 -15.512268 -10.880578 -20.273859 3.119678 -36.916910 -0.000072 -67.186672 -0.000062 -41.632906 -11.516132 -7.742026 -22.783300 -14.798039 12.273502 3.121101 10.436147 14.802490 0.000002 0.000002 -0.000001 1.966046 -2.898958 26.024710 3.255082 5.245449 -63.621498 -0.000000 -0.000002 -0.000005 -0.901189 3.860907 20.811105 2.977383 5.098889 -60.541957 0.000000 -0.000001 -0.000004 -6.204274 13.462557 27.760006 3.748899 5.461612 -68.910516 -0.000000 0.000001 -0.000004 -10.237930 21.423510 28.810093 0.279213 1.788716 -17.742618 0.000001 0.000000 -0.000000 0.000002 0.000001 -0.000001 0.054409 14.630957 15.046420 -11.904867 -6.587379 61.267357 -0.000022 39.465711 0.000024 -2.208372 -4.161586 24.213816 -20.073120 16.089477 -24.921350 8.794348 -40.952745 -1.386071 -0.000001 -0.000000 -0.000002 1.092564 -5.215373 38.900328 3.089345 -4.385876 70.307133 0.000000 0.000000 0.000000 2.965385 -6.600185 70.564392 0.642085 -2.361644 30.415577 0.000002 0.000000 0.000002 5.938360 -7.194003 80.713711 0.323225 -1.706378 21.450626 0.000003 -0.000003 0.000002 1.923047 -22.482445 97.283593 1.111359 -3.021284 40.383992 -0.000003 -0.000001 -0.000003 0.000000 -0.000002 -0.000000 -0.000000 0.000002 0.000000 -0.000000 0.000002 0.000000 -0.000000 0.000002 0.000000 -0.000000 0.000002 0.000000 -0.000000 0.000002 0.000000 -0.000000 0.000001 0.000000 -0.000000 0.000002 0.000000 -0.000000 0.000002 0.000000 -0.000000 0.000001 0.000000 0.000000 -0.000000 0.000000 0.000000 -0.000000 0.000000 0.000000 -0.000000 0.000000 
